Simulation
nRows=45
nColumns=15
endheader
time  TH_x TH_y TH_z SC_y  SC_z  SC_x  AC_y  AC_z  AC_x  GH_y  GH_z  GH_yy  EL_x  PS_y
1.15  0.000000  0.000000  0.000000  -31.70520565485632  5.767682779777214  15.285173473961029  73.36825001076761  -2.205419336195563  3.7795562016031554  64.52180260104493  42.478868603286145  -74.36481867260062  29.22508082135947  0.000000
1.173  0.000000  0.000000  0.000000  -31.70580862544761  5.775604859943854  15.31792949549382  73.43079218449564  -2.253939930558002  3.833328836204881  64.60120330244568  42.41488261119269  -74.33359805851826  29.2684468164365  0.000000
1.196  0.000000  0.000000  0.000000  -31.710799027346305  5.788206926383399  15.35133867354263  73.47270146933272  -2.2872206206474655  3.8707096363225584  64.6451647552473  42.36792740705654  -74.2928129365121  29.291820106298196  0.000000
1.219  0.000000  0.000000  0.000000  -31.72106124812656  5.805667964858639  15.38598136066349  73.49528665827812  -2.305249783609851  3.8915858631055977  64.65248916931323  42.338443535495465  -74.24107363857918  29.294544531956035  0.000000
1.242  0.000000  0.000000  0.000000  -31.73572988294851  5.827887109716999  15.421470595775062  73.49717542611813  -2.3081262459521423  3.895946186108216  64.62261468794111  42.32622799384989  -74.17665366127522  29.276102122588433  0.000000
1.265  0.000000  0.000000  0.000000  -31.7557131924749  5.855001726525149  15.458450792132494  73.48019649229796  -2.2961106013976016  3.8841864538336357  64.55501418433911  42.33148692073763  -74.09787419635406  29.23609571961741  0.000000
1.288  0.000000  0.000000  0.000000  -31.780116881238527  5.886846031250853  15.496588065803488  73.44346872016571  -2.2695497693730378  3.856745558151206  64.44981994822793  42.353793798841934  -74.00282660895124  29.174298062347738  0.000000
1.311  0.000000  0.000000  0.000000  -31.80988558587535  5.9234217393180195  15.536564084012868  73.38931203695394  -2.2289234973442347  3.8144208769979073  64.30715948327081  42.393157434945095  -73.88963306057686  29.09064889838071  0.000000
1.334  0.000000  0.000000  0.000000  -31.844152300386423  5.964433329680925  15.578067127439995  73.31728778756543  -2.17485660065167  3.7580077526734184  64.12773100426205  42.44902010609675  -73.75627901398163  28.985268326185654  0.000000
1.357  0.000000  0.000000  0.000000  -31.88394275271238  6.009885594593705  15.621947513419153  73.23010214764759  -2.107961667511176  3.688683296868428  63.91234553359324  42.52108857173477  -73.60068056251696  28.85831925111601  0.000000
1.38  0.000000  0.000000  0.000000  -31.928467105477708  6.059460271719339  15.667901557884274  73.1276243882024  -2.029094248746987  3.6074471931040737  63.66218113558808  42.608861466780084  -73.42076870871149  28.710148716843282  0.000000
1.403  0.000000  0.000000  0.000000  -31.979210320582638  6.112924587198251  15.716873614027929  73.01272200003066  -1.9388914244838997  3.5156706046350017  63.37871397175604  42.711917148663126  -73.21423652672492  28.541418064213136  0.000000
1.426  0.000000  0.000000  0.000000  -32.035821235190376  6.169954815553803  15.768383507607114  72.88553653967568  -1.8381376769757196  3.4143066980826937  63.06350534295143  42.83037376868012  -72.97891792515578  28.35261909849264  0.000000
1.449  0.000000  0.000000  0.000000  -32.09930126701815  6.229121994379112  15.823711389142318  72.74878680949865  -1.7272109243090434  3.3036343122749425  62.71757845389527  42.96401805690254  -72.7115228731477  28.14478357013489  0.000000
1.472  0.000000  0.000000  0.000000  -32.168598516567094  6.289816438973458  15.88305084268136  72.60247310280113  -1.6069820239502628  3.1851134147931006  62.34180933079149  43.11165051195693  -72.40887353187591  27.9190320430136  0.000000
1.4949999999999999  0.000000  0.000000  0.000000  -32.24513315987319  6.353252984343214  15.94642993947439  72.45054304982676  -1.478679027332369  3.0618195289006884  61.9366510466449  43.27329191458339  -72.06854496304604  27.676057410684766  0.000000
1.518  0.000000  0.000000  0.000000  -32.32797293130608  6.419127159290801  16.015029611735933  72.2933095322824  -1.3443391981853516  2.9346530461265217  61.50415531865203  43.447818035982216  -71.68852998726786  27.417578226921858  0.000000
1.541  0.000000  0.000000  0.000000  -32.416810973803905  6.487304392557382  16.08984726373618  72.13368187965092  -1.2052551905256095  2.804759395310262  61.04469702842142  43.63483905865217  -71.26712673037949  27.145254057154283  0.000000
1.564  0.000000  0.000000  0.000000  -32.51058814443101  6.5568992770967185  16.17074985954032  71.9720711651127  -1.0613762524221824  2.6727373164220807  60.55959570065583  43.83346367467262  -70.80225818618877  26.860563701594277  0.000000
1.587  0.000000  0.000000  0.000000  -32.60983169250008  6.62796397187941  16.258577289225418  71.81157819776676  -0.9133782791610634  2.5401555868893206  60.04984907523272  44.042894140239696  -70.29232486090447  26.5655059136942  0.000000
1.6099999999999999  0.000000  0.000000  0.000000  -32.712795435791186  6.699483728529898  16.35300816543804  71.6530363141085  -0.7623205139685653  2.4080469183238473  59.51796575519306  44.262147025867016  -69.73648391505009  26.261549891663247  0.000000
1.633  0.000000  0.000000  0.000000  -32.819088634924405  6.771167197555892  16.45478517555561  71.49946843483218  -0.6103651672328267  2.27784169957743  58.96672522234316  44.490643441782765  -69.13464618224798  25.950931183229198  0.000000
1.656  0.000000  0.000000  0.000000  -32.927504678355696  6.842789029621408  16.563313826676012  71.35102195260238  -0.4591414563008029  2.1508937428484765  58.39959209724035  44.72763848188394  -68.48724616454143  25.635966625648738  0.000000
1.679  0.000000  0.000000  0.000000  -33.038512540952  6.914050466079348  16.67946419411791  71.210767996732  -0.30997954776170694  2.0284484442117376  57.81895141872767  44.972324696607  -67.79456339820565  25.319183092728537  0.000000
1.702  0.000000  0.000000  0.000000  -33.15051140984037  6.984037192938585  16.802593253161096  71.07889606635344  -0.16360486201453855  1.9109312934407223  57.22743886653567  45.224103853072705  -67.0572162410846  25.00281527702601  0.000000
1.7249999999999999  0.000000  0.000000  0.000000  -33.26378383976634  7.052324074335621  16.93330770671697  70.9582326559105  -0.020849712011455076  1.7992839502989746  56.627046237125214  45.48234626730246  -66.27620922792575  24.68958354865052  0.000000
1.748  0.000000  0.000000  0.000000  -33.376890980899304  7.118021565833758  17.070866287636047  70.84877213956536  0.11798810100580898  1.6936476289846627  56.020136607589485  45.746592344658396  -65.4526526526391  24.381897198618844  0.000000
1.771  0.000000  0.000000  0.000000  -33.490396888561285  7.180550210275212  17.215634719584997  70.75314028235852  0.25202283786767793  1.5947318543206244  55.40786520645017  46.01669486043969  -64.58854200049154  24.08261520835274  0.000000
1.794  0.000000  0.000000  0.000000  -33.60391040307102  7.239017482428952  17.366753154693686  70.67107899220272  0.3809569428057212  1.5027469235644426  54.79201073628266  46.292338091443  -63.685340628200485  23.794509269058757  0.000000
1.817  0.000000  0.000000  0.000000  -33.71991894783095  7.291858461450125  17.523211496845384  70.60569236335341  0.503328460509309  1.418193603238383  54.1715656622053  46.57546173497375  -62.74549104247341  23.520239630572313  0.000000
1.8399999999999999  0.000000  0.000000  0.000000  -33.83870599135098  7.341203609737929  17.682444525701356  70.55545655302437  0.6202401712286293  1.3447907098438798  53.547547892031496  46.864132933854165  -61.769663156464624  23.261860329730318  0.000000
1.863  0.000000  0.000000  0.000000  -33.96000391099676  7.390080479753531  17.842579092655566  70.5215521984232  0.7320563324416469  1.2842435020782044  52.92250802199865  47.157931816374  -60.7648198573905  23.02233552774782  0.000000
1.886  0.000000  0.000000  0.000000  -34.083073804617655  7.433146246015613  18.004356593490147  70.50276805977971  0.8376097127013171  1.2333705230577992  52.30557477629131  47.45613004659167  -59.74266520864112  22.804229339150595  0.000000
1.909  0.000000  0.000000  0.000000  -34.20543484864405  7.4681585189536746  18.168383296926407  70.50127206773796  0.9355588627395646  1.1872021732962406  51.70401198732448  47.760097603727694  -58.719690054159834  22.611501969108307  0.000000
1.932  0.000000  0.000000  0.000000  -34.32316553043612  7.4970335576569225  18.334406416228067  70.5115770576876  1.0283012437797125  1.1474122889536484  51.12790512054072  48.063952709242415  -57.705841996402754  22.44791550508994  0.000000
1.955  0.000000  0.000000  0.000000  -34.434149241852595  7.519333844942929  18.500269797210933  70.53556375587466  1.118052811850649  1.1092428241346397  50.581961734506415  48.37101333729857  -56.71793196357155  22.315837866890757  0.000000
1.978  0.000000  0.000000  0.000000  -34.53512023819833  7.535413329037778  18.664014041743155  70.56513603244215  1.2078838534822822  1.0744243262322957  50.0739212848766  48.677491985102314  -55.766441056866206  22.219785078385815  0.000000
2.001  0.000000  0.000000  0.000000  -34.6234864391829  7.5441819567390995  18.822411632743755  70.60221652591024  1.3039641317218134  1.0343661758317189  49.60733918562705  48.98883369361764  -54.87027184010255  22.161179390103335  0.000000
2.024  0.000000  0.000000  0.000000  -34.69407999583032  7.544865880615846  18.97121232351766  70.63445480056704  1.4100871152763492  0.9901336233829917  49.18816895025472  49.302310949167044  -54.04230786133187  22.145869471316775  0.000000
2.047  0.000000  0.000000  0.000000  -34.743619403081325  7.534934824909501  19.10603759875283  70.66329086284514  1.5385617840795625  0.9286591309143202  48.82093452498747  49.62166535025055  -53.303220429405165  22.17379548097351  0.000000
2.07  0.000000  0.000000  0.000000  -34.764462470532656  7.511343364375214  19.217879861509072  70.67237950229053  1.692713961127073  0.8485259649150612  48.50912411633487  49.94453038928683  -52.67116502700988  22.25256361842298  0.000000
2.093  0.000000  0.000000  0.000000  -34.754698360155814  7.469798107157624  19.299542501724417  70.66092499928138  1.8935377391877655  0.734814660870972  48.26062441292063  50.26331080707391  -52.16494939324853  22.381558718029808  0.000000
2.116  0.000000  0.000000  0.000000  -34.699159507872444  7.403229656473764  19.33431847360578  70.61081349306102  2.14256689062714  0.5787336324238911  48.070787709779786  50.57177976040459  -51.81091968385976  22.565407008240523  0.000000
2.139  0.000000  0.000000  0.000000  -34.60215690796517  7.302395940357002  19.312215365421178  70.52012946066672  2.4681802931418355  0.3725717743859291  47.952705228812775  50.83550263884413  -51.620814834392796  22.79346429903008  0.000000
2.162  0.000000  0.000000  0.000000  -34.453986031955075  7.151137703746102  19.202781469311326  70.38521938243063  2.8727177235845636  0.09744581982398397  47.892695963531935  51.027631632736785  -51.6235020183681  23.09026775516754  0.000000
